<svg width="21" height="16" viewBox="0 0 21 16" fill="none" xmlns="http://www.w3.org/2000/svg">
<path d="M3.66732 15.3334C3.16315 15.3334 2.7314 15.1537 2.37207 14.7944C2.01274 14.4351 1.83337 14.0036 1.83399 13.5001V2.50008C1.83399 1.99592 2.01365 1.56417 2.37299 1.20483C2.73232 0.845499 3.16376 0.666138 3.66732 0.66675H18.334C18.8382 0.66675 19.2699 0.846416 19.6292 1.20575C19.9886 1.56508 20.1679 1.99653 20.1673 2.50008V13.5001C20.1673 14.0042 19.9877 14.436 19.6283 14.7953C19.269 15.1547 18.8375 15.334 18.334 15.3334H3.66732ZM11.0007 8.91675L18.334 4.33342V2.50008L11.0007 7.08342L3.66732 2.50008V4.33342L11.0007 8.91675Z" fill="white"/>
</svg>
