<svg width="107" height="20" viewBox="0 0 107 20" fill="none" xmlns="http://www.w3.org/2000/svg">
<path d="M3.66667 12.2343H29.3333V8.44315H3.66667V12.2343ZM0 19.8167H25.6667V16.0255H0V19.8167ZM7.33333 0.860779V4.65196H33V0.860779H7.33333Z" fill="#DCDCDC"/>
<path d="M53.3398 12.2695C53.5352 12.2695 53.7188 12.3555 53.8906 12.5273C54.0703 12.6992 54.1602 12.8789 54.1602 13.0664C54.1602 13.2617 54.1328 13.4141 54.0781 13.5234C53.7031 14.3672 53.168 15.1484 52.4727 15.8672C51.7852 16.5859 50.9648 17.1641 50.0117 17.6016C49.0586 18.0391 47.9922 18.2578 46.8125 18.2578C45.6484 18.2578 44.5938 18.043 43.6484 17.6133C42.7109 17.1836 41.9062 16.5898 41.2344 15.832C40.5703 15.0664 40.0586 14.1836 39.6992 13.1836C39.3477 12.1758 39.1719 11.0938 39.1719 9.9375C39.1719 8.79688 39.3516 7.73438 39.7109 6.75C40.0703 5.75781 40.5859 4.89062 41.2578 4.14844C41.9297 3.39844 42.7305 2.8125 43.6602 2.39062C44.5977 1.96875 45.6367 1.75781 46.7773 1.75781C47.9336 1.75781 48.9844 1.96094 49.9297 2.36719C50.8828 2.77344 51.707 3.31641 52.4023 3.99609C53.1055 4.67578 53.6523 5.42969 54.043 6.25781C54.1055 6.38281 54.1367 6.51562 54.1367 6.65625C54.1367 6.88281 54.0547 7.08594 53.8906 7.26562C53.7344 7.4375 53.5703 7.52344 53.3984 7.52344C52.9297 7.52344 52.6172 7.35156 52.4609 7.00781C52 6.03125 51.2773 5.20703 50.293 4.53516C49.3086 3.85547 48.1367 3.51562 46.7773 3.51562C45.5742 3.51562 44.5352 3.80469 43.6602 4.38281C42.7852 4.96094 42.1094 5.73828 41.6328 6.71484C41.1641 7.68359 40.9297 8.76953 40.9297 9.97266C40.9297 11.1758 41.1641 12.2734 41.6328 13.2656C42.1016 14.25 42.7734 15.0352 43.6484 15.6211C44.5312 16.1992 45.5781 16.4883 46.7891 16.4883C47.6953 16.4883 48.5195 16.3203 49.2617 15.9844C50.0117 15.6406 50.6602 15.1875 51.207 14.625C51.7617 14.0625 52.1836 13.457 52.4727 12.8086C52.6289 12.4492 52.918 12.2695 53.3398 12.2695ZM56.75 18.2695C56.5547 18.2695 56.3672 18.1836 56.1875 18.0117C56.0156 17.8398 55.9297 17.6602 55.9297 17.4727C55.9297 17.2852 55.957 17.1367 56.0117 17.0273L62.4453 2.32031C62.5 2.20312 62.6016 2.08594 62.75 1.96875C62.9062 1.85156 63.0586 1.79297 63.207 1.79297C63.6289 1.79297 63.9141 1.96875 64.0625 2.32031L70.5078 17.0039C70.5547 17.1055 70.5781 17.2188 70.5781 17.3438C70.5781 17.5625 70.5039 17.7695 70.3555 17.9648C70.2148 18.1523 70.0312 18.2461 69.8047 18.2461C69.3438 18.2461 69.0391 18.0664 68.8906 17.707L66.5352 12.3281H60.0195L57.6172 17.7305C57.4688 18.0898 57.1797 18.2695 56.75 18.2695ZM63.2539 4.875L60.7812 10.5703H65.7617L63.2539 4.875ZM72.5703 2.63672C72.5703 2.38672 72.6562 2.17969 72.8281 2.01562C73.0078 1.84375 73.2266 1.75781 73.4844 1.75781C73.7578 1.75781 73.9805 1.875 74.1523 2.10938L83.5273 14.7188V2.67188C83.5273 2.42969 83.6133 2.22266 83.7852 2.05078C83.957 1.87891 84.1641 1.79297 84.4062 1.79297C84.6484 1.79297 84.8555 1.87891 85.0273 2.05078C85.1992 2.22266 85.2852 2.42969 85.2852 2.67188V2.68359L85.2734 17.3555C85.2734 17.6055 85.1836 17.8164 85.0039 17.9883C84.832 18.1523 84.6172 18.2344 84.3594 18.2344C84.0938 18.2344 83.8711 18.1172 83.6914 17.8828L74.3281 5.28516V17.3438C74.3281 17.5859 74.2422 17.793 74.0703 17.9648C73.8984 18.1367 73.6914 18.2227 73.4492 18.2227C73.207 18.2227 73 18.1367 72.8281 17.9648C72.6562 17.793 72.5703 17.5859 72.5703 17.3438V2.63672ZM89 18.2461C88.7578 18.2461 88.5508 18.1602 88.3789 17.9883C88.207 17.8164 88.1211 17.6094 88.1211 17.3672V17.3555L88.1094 2.63672V2.625C88.1094 2.39844 88.1914 2.19531 88.3555 2.01562C88.5273 1.83594 88.7188 1.74609 88.9297 1.74609C89.2188 1.74609 89.4453 1.83203 89.6094 2.00391C89.7812 2.16797 89.8672 2.375 89.8672 2.625V2.63672L89.8789 17.3555V17.3672C89.8789 17.6094 89.793 17.8164 89.6211 17.9883C89.4492 18.1602 89.2422 18.2461 89 18.2461ZM92.7031 2.68359C92.7031 2.44141 92.7891 2.23438 92.9609 2.0625C93.1328 1.89062 93.3398 1.80469 93.582 1.80469L104.562 1.81641H104.574C104.816 1.81641 105.023 1.90234 105.195 2.07422C105.367 2.24609 105.453 2.45312 105.453 2.69531C105.453 2.9375 105.367 3.14453 105.195 3.31641C105.023 3.48828 104.816 3.57422 104.574 3.57422H104.562L94.4609 3.5625L94.4727 9.07031C94.4961 9.07031 94.5156 9.07031 94.5312 9.07031C94.5547 9.0625 94.5742 9.05859 94.5898 9.05859L103.602 9.11719C103.852 9.11719 104.059 9.20312 104.223 9.375C104.395 9.53906 104.48 9.76562 104.48 10.0547C104.48 10.2734 104.391 10.4648 104.211 10.6289C104.031 10.793 103.828 10.875 103.602 10.875H103.59L94.5781 10.8164H94.4844L94.4961 16.2656L104.562 16.2539H104.574C104.816 16.2539 105.023 16.3398 105.195 16.5117C105.367 16.6836 105.453 16.8906 105.453 17.1328C105.453 17.375 105.367 17.582 105.195 17.7539C105.023 17.9258 104.816 18.0117 104.574 18.0117H104.562L93.6172 18.0234C93.375 18.0234 93.168 17.9375 92.9961 17.7656C92.8242 17.5938 92.7383 17.3867 92.7383 17.1445L92.7031 2.68359Z" fill="#DCDCDC"/>
</svg>
