<svg width="1511" height="1107" viewBox="0 0 1511 1107" fill="none" xmlns="http://www.w3.org/2000/svg">
<path d="M1470.81 406.349C940.276 358.808 -125.937 299.844 -146.526 444.324C-172.263 624.922 1423.45 100.719 1567.77 91.3299C1712.08 81.9417 1745.28 453.154 1071.25 589.727C534.116 698.56 -29.4426 755.975 -246.826 771.302C-248.143 771.399 -249.179 770.857 -248.974 770.108C-242.282 745.627 -143.574 399.791 133.118 243.13C401.98 90.9022 1032.23 7.83097 1085.45 1.02752C1087.07 0.819487 1087.98 1.83168 1087.26 2.68844L186.684 1072.75C186.136 1073.4 186.709 1074.16 187.942 1074.34C534.86 1124.01 1288.25 1151.74 1545.51 867.332" stroke="url(#paint0_linear_96_2663)" stroke-width="2" stroke-linecap="round"/>
<defs>
<linearGradient id="paint0_linear_96_2663" x1="187.5" y1="169.5" x2="1370.5" y2="1235.5" gradientUnits="userSpaceOnUse">
<stop stop-color="#4F47F4"/>
<stop offset="1" stop-color="#47D5F4"/>
</linearGradient>
</defs>
</svg>
